<svg width="215" height="57" viewBox="0 0 215 57" fill="none" xmlns="http://www.w3.org/2000/svg">
<path d="M19.4394 42.336L11.1234 27.648H7.55944V42.336H-0.000562191V4.644H14.1474C17.0634 4.644 19.5474 5.166 21.5994 6.21C23.6514 7.218 25.1814 8.604 26.1894 10.368C27.2334 12.096 27.7554 14.04 27.7554 16.2C27.7554 18.684 27.0354 20.934 25.5954 22.95C24.1554 24.93 22.0134 26.298 19.1694 27.054L28.1874 42.336H19.4394ZM7.55944 21.978H13.8774C15.9294 21.978 17.4594 21.492 18.4674 20.52C19.4754 19.512 19.9794 18.126 19.9794 16.362C19.9794 14.634 19.4754 13.302 18.4674 12.366C17.4594 11.394 15.9294 10.908 13.8774 10.908H7.55944V21.978ZM65.9773 27.378C65.9773 24.282 66.6073 21.582 67.8673 19.278C69.1273 16.938 70.8733 15.138 73.1053 13.878C75.3373 12.582 77.8933 11.934 80.7733 11.934C84.4813 11.934 87.5413 12.87 89.9533 14.742C92.4013 16.578 94.0393 19.17 94.8673 22.518H86.7133C86.2813 21.222 85.5433 20.214 84.4993 19.494C83.4913 18.738 82.2313 18.36 80.7193 18.36C78.5593 18.36 76.8493 19.152 75.5893 20.736C74.3293 22.284 73.6993 24.498 73.6993 27.378C73.6993 30.222 74.3293 32.436 75.5893 34.02C76.8493 35.568 78.5593 36.342 80.7193 36.342C83.7793 36.342 85.7773 34.974 86.7133 32.238H94.8673C94.0393 35.478 92.4013 38.052 89.9533 39.96C87.5053 41.868 84.4453 42.822 80.7733 42.822C77.8933 42.822 75.3373 42.192 73.1053 40.932C70.8733 39.636 69.1273 37.836 67.8673 35.532C66.6073 33.192 65.9773 30.474 65.9773 27.378ZM141.294 16.74C142.266 15.372 143.598 14.238 145.29 13.338C147.018 12.402 148.98 11.934 151.176 11.934C153.732 11.934 156.036 12.564 158.088 13.824C160.176 15.084 161.814 16.884 163.002 19.224C164.226 21.528 164.838 24.21 164.838 27.27C164.838 30.33 164.226 33.048 163.002 35.424C161.814 37.764 160.176 39.582 158.088 40.878C156.036 42.174 153.732 42.822 151.176 42.822C148.98 42.822 147.036 42.372 145.344 41.472C143.688 40.572 142.338 39.438 141.294 38.07V56.592H133.734V12.42H141.294V16.74ZM157.116 27.27C157.116 25.47 156.738 23.922 155.982 22.626C155.262 21.294 154.29 20.286 153.066 19.602C151.878 18.918 150.582 18.576 149.178 18.576C147.81 18.576 146.514 18.936 145.29 19.656C144.102 20.34 143.13 21.348 142.374 22.68C141.654 24.012 141.294 25.578 141.294 27.378C141.294 29.178 141.654 30.744 142.374 32.076C143.13 33.408 144.102 34.434 145.29 35.154C146.514 35.838 147.81 36.18 149.178 36.18C150.582 36.18 151.878 35.82 153.066 35.1C154.29 34.38 155.262 33.354 155.982 32.022C156.738 30.69 157.116 29.106 157.116 27.27ZM174.165 8.856C172.833 8.856 171.717 8.442 170.817 7.614C169.953 6.75 169.521 5.688 169.521 4.428C169.521 3.168 169.953 2.124 170.817 1.296C171.717 0.431996 172.833 -3.57628e-06 174.165 -3.57628e-06C175.497 -3.57628e-06 176.595 0.431996 177.459 1.296C178.359 2.124 178.809 3.168 178.809 4.428C178.809 5.688 178.359 6.75 177.459 7.614C176.595 8.442 175.497 8.856 174.165 8.856ZM177.891 12.42V42.336H170.331V12.42H177.891ZM198.645 42.822C195.765 42.822 193.173 42.192 190.869 40.932C188.565 39.636 186.747 37.818 185.415 35.478C184.119 33.138 183.471 30.438 183.471 27.378C183.471 24.318 184.137 21.618 185.469 19.278C186.837 16.938 188.691 15.138 191.031 13.878C193.371 12.582 195.981 11.934 198.861 11.934C201.741 11.934 204.351 12.582 206.691 13.878C209.031 15.138 210.867 16.938 212.199 19.278C213.567 21.618 214.251 24.318 214.251 27.378C214.251 30.438 213.549 33.138 212.145 35.478C210.777 37.818 208.905 39.636 206.529 40.932C204.189 42.192 201.561 42.822 198.645 42.822ZM198.645 36.234C200.013 36.234 201.291 35.91 202.479 35.262C203.703 34.578 204.675 33.57 205.395 32.238C206.115 30.906 206.475 29.286 206.475 27.378C206.475 24.534 205.719 22.356 204.207 20.844C202.731 19.296 200.913 18.522 198.753 18.522C196.593 18.522 194.775 19.296 193.299 20.844C191.859 22.356 191.139 24.534 191.139 27.378C191.139 30.222 191.841 32.418 193.245 33.966C194.685 35.478 196.485 36.234 198.645 36.234Z" fill="url(#paint0_linear_3330_6658)"/>
<path d="M62.4032 26.73C62.4032 27.81 62.3312 28.782 62.1872 29.646H40.3172C40.4972 31.806 41.2532 33.498 42.5852 34.722C43.9172 35.946 45.5552 36.558 47.4992 36.558C50.3072 36.558 52.3052 35.352 53.4932 32.94H61.6472C60.7832 35.82 59.1272 38.196 56.6792 40.068C54.2312 41.904 51.2252 42.822 47.6612 42.822C44.7812 42.822 42.1892 42.192 39.8852 40.932C37.6172 39.636 35.8352 37.818 34.5392 35.478C33.2792 33.138 32.6492 30.438 32.6492 27.378C32.6492 24.282 33.2792 21.564 34.5392 19.224C35.7992 16.884 37.5632 15.084 39.8312 13.824C42.0992 12.564 44.7092 11.934 47.6612 11.934C50.5052 11.934 53.0432 12.546 55.2752 13.77C57.5432 14.994 59.2892 16.74 60.5132 19.008C61.7732 21.24 62.4032 23.814 62.4032 26.73ZM54.5732 24.57C54.5372 22.626 53.8352 21.078 52.4672 19.926C51.0992 18.738 49.4252 18.144 47.4452 18.144C45.5732 18.144 43.9892 18.72 42.6932 19.872C41.4332 20.988 40.6592 22.554 40.3712 24.57H54.5732ZM128.216 26.73C128.216 27.81 128.144 28.782 128 29.646H106.13C106.31 31.806 107.066 33.498 108.398 34.722C109.73 35.946 111.368 36.558 113.312 36.558C116.12 36.558 118.118 35.352 119.306 32.94H127.46C126.596 35.82 124.94 38.196 122.492 40.068C120.044 41.904 117.038 42.822 113.474 42.822C110.594 42.822 108.002 42.192 105.698 40.932C103.43 39.636 101.648 37.818 100.352 35.478C99.0917 33.138 98.4617 30.438 98.4617 27.378C98.4617 24.282 99.0917 21.564 100.352 19.224C101.612 16.884 103.376 15.084 105.644 13.824C107.912 12.564 110.522 11.934 113.474 11.934C116.318 11.934 118.856 12.546 121.088 13.77C123.356 14.994 125.102 16.74 126.326 19.008C127.586 21.24 128.216 23.814 128.216 26.73ZM120.386 24.57C120.35 22.626 119.648 21.078 118.28 19.926C116.912 18.738 115.238 18.144 113.258 18.144C111.386 18.144 109.802 18.72 108.506 19.872C107.246 20.988 106.472 22.554 106.184 24.57H120.386Z" fill="url(#paint1_linear_3330_6658)"/>
<defs>
<linearGradient id="paint0_linear_3330_6658" x1="5.19344" y1="-12.744" x2="22.5633" y2="82.8234" gradientUnits="userSpaceOnUse">
<stop stop-color="#FF3E3E"/>
<stop offset="1" stop-color="#CA1818"/>
</linearGradient>
<linearGradient id="paint1_linear_3330_6658" x1="5.19344" y1="-12.744" x2="22.5633" y2="82.8234" gradientUnits="userSpaceOnUse">
<stop stop-color="#FEDF8B"/>
<stop offset="1" stop-color="#FF3E3E"/>
</linearGradient>
</defs>
</svg>
