<svg width="286" height="176" viewBox="0 0 286 176" fill="none" xmlns="http://www.w3.org/2000/svg">
<g filter="url(#filter0_d_3281_6549)">
<circle cx="83" cy="86.5669" r="13" fill="url(#paint0_linear_3281_6549)"/>
</g>
<g filter="url(#filter1_d_3281_6549)">
<path d="M108.2 93.7069C107.227 93.7069 106.347 93.5402 105.56 93.2069C104.787 92.8736 104.173 92.3936 103.72 91.7669C103.267 91.1402 103.033 90.4002 103.02 89.5469H106.02C106.06 90.1202 106.26 90.5736 106.62 90.9069C106.993 91.2402 107.5 91.4069 108.14 91.4069C108.793 91.4069 109.307 91.2536 109.68 90.9469C110.053 90.6269 110.24 90.2136 110.24 89.7069C110.24 89.2936 110.113 88.9536 109.86 88.6869C109.607 88.4202 109.287 88.2136 108.9 88.0669C108.527 87.9069 108.007 87.7336 107.34 87.5469C106.433 87.2802 105.693 87.0202 105.12 86.7669C104.56 86.5002 104.073 86.1069 103.66 85.5869C103.26 85.0536 103.06 84.3469 103.06 83.4669C103.06 82.6402 103.267 81.9202 103.68 81.3069C104.093 80.6936 104.673 80.2269 105.42 79.9069C106.167 79.5736 107.02 79.4069 107.98 79.4069C109.42 79.4069 110.587 79.7602 111.48 80.4669C112.387 81.1602 112.887 82.1336 112.98 83.3869H109.9C109.873 82.9069 109.667 82.5136 109.28 82.2069C108.907 81.8869 108.407 81.7269 107.78 81.7269C107.233 81.7269 106.793 81.8669 106.46 82.1469C106.14 82.4269 105.98 82.8336 105.98 83.3669C105.98 83.7402 106.1 84.0536 106.34 84.3069C106.593 84.5469 106.9 84.7469 107.26 84.9069C107.633 85.0536 108.153 85.2269 108.82 85.4269C109.727 85.6936 110.467 85.9602 111.04 86.2269C111.613 86.4936 112.107 86.8936 112.52 87.4269C112.933 87.9602 113.14 88.6602 113.14 89.5269C113.14 90.2736 112.947 90.9669 112.56 91.6069C112.173 92.2469 111.607 92.7602 110.86 93.1469C110.113 93.5202 109.227 93.7069 108.2 93.7069ZM122.048 93.7069C120.741 93.7069 119.541 93.4002 118.448 92.7869C117.354 92.1736 116.488 91.3269 115.848 90.2469C115.208 89.1536 114.888 87.9202 114.888 86.5469C114.888 85.1869 115.208 83.9669 115.848 82.8869C116.488 81.7936 117.354 80.9402 118.448 80.3269C119.541 79.7136 120.741 79.4069 122.048 79.4069C123.368 79.4069 124.568 79.7136 125.648 80.3269C126.741 80.9402 127.601 81.7936 128.228 82.8869C128.868 83.9669 129.188 85.1869 129.188 86.5469C129.188 87.9202 128.868 89.1536 128.228 90.2469C127.601 91.3269 126.741 92.1736 125.648 92.7869C124.554 93.4002 123.354 93.7069 122.048 93.7069ZM122.048 91.2069C122.888 91.2069 123.628 91.0202 124.268 90.6469C124.908 90.2602 125.408 89.7136 125.768 89.0069C126.128 88.3002 126.308 87.4802 126.308 86.5469C126.308 85.6136 126.128 84.8002 125.768 84.1069C125.408 83.4002 124.908 82.8602 124.268 82.4869C123.628 82.1136 122.888 81.9269 122.048 81.9269C121.208 81.9269 120.461 82.1136 119.808 82.4869C119.168 82.8602 118.668 83.4002 118.308 84.1069C117.948 84.8002 117.768 85.6136 117.768 86.5469C117.768 87.4802 117.948 88.3002 118.308 89.0069C118.668 89.7136 119.168 90.2602 119.808 90.6469C120.461 91.0202 121.208 91.2069 122.048 91.2069ZM139.891 79.6069V81.8669H134.071V85.4469H138.531V87.6669H134.071V93.5669H131.271V79.6069H139.891ZM151.376 79.6069V81.8669H147.656V93.5669H144.856V81.8669H141.136V79.6069H151.376ZM168.365 83.9269C168.365 84.6736 168.185 85.3736 167.825 86.0269C167.478 86.6802 166.925 87.2069 166.165 87.6069C165.418 88.0069 164.471 88.2069 163.325 88.2069H160.985V93.5669H158.185V79.6069H163.325C164.405 79.6069 165.325 79.7936 166.085 80.1669C166.845 80.5402 167.411 81.0536 167.785 81.7069C168.171 82.3602 168.365 83.1002 168.365 83.9269ZM163.205 85.9469C163.978 85.9469 164.551 85.7736 164.925 85.4269C165.298 85.0669 165.485 84.5669 165.485 83.9269C165.485 82.5669 164.725 81.8869 163.205 81.8869H160.985V85.9469H163.205ZM176.833 93.7069C175.526 93.7069 174.326 93.4002 173.233 92.7869C172.139 92.1736 171.273 91.3269 170.633 90.2469C169.993 89.1536 169.673 87.9202 169.673 86.5469C169.673 85.1869 169.993 83.9669 170.633 82.8869C171.273 81.7936 172.139 80.9402 173.233 80.3269C174.326 79.7136 175.526 79.4069 176.833 79.4069C178.153 79.4069 179.353 79.7136 180.433 80.3269C181.526 80.9402 182.386 81.7936 183.013 82.8869C183.653 83.9669 183.973 85.1869 183.973 86.5469C183.973 87.9202 183.653 89.1536 183.013 90.2469C182.386 91.3269 181.526 92.1736 180.433 92.7869C179.339 93.4002 178.139 93.7069 176.833 93.7069ZM176.833 91.2069C177.673 91.2069 178.413 91.0202 179.053 90.6469C179.693 90.2602 180.193 89.7136 180.553 89.0069C180.913 88.3002 181.093 87.4802 181.093 86.5469C181.093 85.6136 180.913 84.8002 180.553 84.1069C180.193 83.4002 179.693 82.8602 179.053 82.4869C178.413 82.1136 177.673 81.9269 176.833 81.9269C175.993 81.9269 175.246 82.1136 174.593 82.4869C173.953 82.8602 173.453 83.4002 173.093 84.1069C172.733 84.8002 172.553 85.6136 172.553 86.5469C172.553 87.4802 172.733 88.3002 173.093 89.0069C173.453 89.7136 173.953 90.2602 174.593 90.6469C175.246 91.0202 175.993 91.2069 176.833 91.2069ZM188.856 79.6069V93.5669H186.056V79.6069H188.856ZM203.562 93.5669H200.762L194.422 83.9869V93.5669H191.622V79.5869H194.422L200.762 89.1869V79.5869H203.562V93.5669ZM215.829 79.6069V81.8669H212.109V93.5669H209.309V81.8669H205.589V79.6069H215.829Z" fill="#DC2424"/>
</g>
<g filter="url(#filter2_d_3281_6549)">
<circle cx="83" cy="86.5669" r="4" fill="white"/>
<circle cx="83" cy="86.5669" r="4.5" stroke="#FEF9F9"/>
</g>
<g filter="url(#filter3_d_3281_6549)">
<rect x="115.242" y="93.2891" width="19.3138" height="2.11682" rx="1.05841" transform="rotate(-49.6636 115.242 93.2891)" fill="#FEDF8B"/>
</g>
<g filter="url(#filter4_d_3281_6549)">
<rect x="170.244" y="93.2856" width="19.3097" height="2.11682" rx="1.05841" transform="rotate(-49.6636 170.244 93.2856)" fill="#FEDF8B"/>
</g>
<defs>
<filter id="filter0_d_3281_6549" x="0" y="7.56689" width="166" height="166" filterUnits="userSpaceOnUse" color-interpolation-filters="sRGB">
<feFlood flood-opacity="0" result="BackgroundImageFix"/>
<feColorMatrix in="SourceAlpha" type="matrix" values="0 0 0 0 0 0 0 0 0 0 0 0 0 0 0 0 0 0 127 0" result="hardAlpha"/>
<feOffset dy="4"/>
<feGaussianBlur stdDeviation="35"/>
<feComposite in2="hardAlpha" operator="out"/>
<feColorMatrix type="matrix" values="0 0 0 0 0.607843 0 0 0 0 0.843137 0 0 0 0 0.764706 0 0 0 0.8 0"/>
<feBlend mode="normal" in2="BackgroundImageFix" result="effect1_dropShadow_3281_6549"/>
<feBlend mode="normal" in="SourceGraphic" in2="effect1_dropShadow_3281_6549" result="shape"/>
</filter>
<filter id="filter1_d_3281_6549" x="33.0195" y="13.4067" width="252.811" height="154.3" filterUnits="userSpaceOnUse" color-interpolation-filters="sRGB">
<feFlood flood-opacity="0" result="BackgroundImageFix"/>
<feColorMatrix in="SourceAlpha" type="matrix" values="0 0 0 0 0 0 0 0 0 0 0 0 0 0 0 0 0 0 127 0" result="hardAlpha"/>
<feOffset dy="4"/>
<feGaussianBlur stdDeviation="35"/>
<feComposite in2="hardAlpha" operator="out"/>
<feColorMatrix type="matrix" values="0 0 0 0 0.607843 0 0 0 0 0.843137 0 0 0 0 0.764706 0 0 0 0.8 0"/>
<feBlend mode="normal" in2="BackgroundImageFix" result="effect1_dropShadow_3281_6549"/>
<feBlend mode="normal" in="SourceGraphic" in2="effect1_dropShadow_3281_6549" result="shape"/>
</filter>
<filter id="filter2_d_3281_6549" x="77" y="81.5669" width="12" height="12" filterUnits="userSpaceOnUse" color-interpolation-filters="sRGB">
<feFlood flood-opacity="0" result="BackgroundImageFix"/>
<feColorMatrix in="SourceAlpha" type="matrix" values="0 0 0 0 0 0 0 0 0 0 0 0 0 0 0 0 0 0 127 0" result="hardAlpha"/>
<feOffset dy="1"/>
<feGaussianBlur stdDeviation="0.5"/>
<feComposite in2="hardAlpha" operator="out"/>
<feColorMatrix type="matrix" values="0 0 0 0 0.0211458 0 0 0 0 0.120833 0 0 0 0 0.08875 0 0 0 0.2 0"/>
<feBlend mode="normal" in2="BackgroundImageFix" result="effect1_dropShadow_3281_6549"/>
<feBlend mode="normal" in="SourceGraphic" in2="effect1_dropShadow_3281_6549" result="shape"/>
</filter>
<filter id="filter3_d_3281_6549" x="31.6758" y="0.000488281" width="173.248" height="175.225" filterUnits="userSpaceOnUse" color-interpolation-filters="sRGB">
<feFlood flood-opacity="0" result="BackgroundImageFix"/>
<feColorMatrix in="SourceAlpha" type="matrix" values="0 0 0 0 0 0 0 0 0 0 0 0 0 0 0 0 0 0 127 0" result="hardAlpha"/>
<feOffset dx="-4" dy="1"/>
<feGaussianBlur stdDeviation="40"/>
<feComposite in2="hardAlpha" operator="out"/>
<feColorMatrix type="matrix" values="0 0 0 0 0.964706 0 0 0 0 0.847059 0 0 0 0 0.529412 0 0 0 0.7 0"/>
<feBlend mode="normal" in2="BackgroundImageFix" result="effect1_dropShadow_3281_6549"/>
<feBlend mode="normal" in="SourceGraphic" in2="effect1_dropShadow_3281_6549" result="shape"/>
</filter>
<filter id="filter4_d_3281_6549" x="86.6777" y="0" width="173.246" height="175.222" filterUnits="userSpaceOnUse" color-interpolation-filters="sRGB">
<feFlood flood-opacity="0" result="BackgroundImageFix"/>
<feColorMatrix in="SourceAlpha" type="matrix" values="0 0 0 0 0 0 0 0 0 0 0 0 0 0 0 0 0 0 127 0" result="hardAlpha"/>
<feOffset dx="-4" dy="1"/>
<feGaussianBlur stdDeviation="40"/>
<feComposite in2="hardAlpha" operator="out"/>
<feColorMatrix type="matrix" values="0 0 0 0 0.964706 0 0 0 0 0.847059 0 0 0 0 0.529412 0 0 0 0.7 0"/>
<feBlend mode="normal" in2="BackgroundImageFix" result="effect1_dropShadow_3281_6549"/>
<feBlend mode="normal" in="SourceGraphic" in2="effect1_dropShadow_3281_6549" result="shape"/>
</filter>
<linearGradient id="paint0_linear_3281_6549" x1="81.5662" y1="78.2507" x2="83" y2="99.5669" gradientUnits="userSpaceOnUse">
<stop stop-color="#E78E8E"/>
<stop offset="1" stop-color="#EE2F2F"/>
</linearGradient>
</defs>
</svg>
