<svg width="16" height="16" viewBox="0 0 16 16" fill="none" xmlns="http://www.w3.org/2000/svg">
<path fill-rule="evenodd" clip-rule="evenodd" d="M7.99984 0.666672C8.36803 0.666672 8.6665 0.965149 8.6665 1.33334V7.33334H14.6665C15.0347 7.33334 15.3332 7.63181 15.3332 8C15.3332 8.36819 15.0347 8.66667 14.6665 8.66667H8.6665V14.6667C8.6665 15.0349 8.36803 15.3333 7.99984 15.3333C7.63165 15.3333 7.33317 15.0349 7.33317 14.6667V8.66667H1.33317C0.964981 8.66667 0.666504 8.36819 0.666504 8C0.666504 7.63181 0.964981 7.33334 1.33317 7.33334H7.33317V1.33334C7.33317 0.965149 7.63165 0.666672 7.99984 0.666672Z" fill="black"/>
</svg>
