<svg width="15" height="15" viewBox="0 0 15 15" fill="none" xmlns="http://www.w3.org/2000/svg">
<path fill-rule="evenodd" clip-rule="evenodd" d="M7.33334 0C7.70153 0 8 0.298477 8 0.666668V6.66667H14C14.3682 6.66667 14.6667 6.96514 14.6667 7.33333C14.6667 7.70152 14.3682 8 14 8H8V14C8 14.3682 7.70153 14.6666 7.33334 14.6666C6.96515 14.6666 6.66667 14.3682 6.66667 14V8H0.666666C0.298477 8 0 7.70152 0 7.33333C0 6.96514 0.298477 6.66667 0.666666 6.66667H6.66667V0.666668C6.66667 0.298477 6.96515 0 7.33334 0Z" fill="#120202"/>
</svg>
