<svg width="19" height="19" viewBox="0 0 19 19" fill="none" xmlns="http://www.w3.org/2000/svg">
<path fill-rule="evenodd" clip-rule="evenodd" d="M8.50581 1.76744C4.78431 1.76744 1.76744 4.78431 1.76744 8.50581C1.76744 12.2273 4.78431 15.2442 8.50581 15.2442C10.3651 15.2442 12.047 14.4923 13.2671 13.274C14.4895 12.0534 15.2442 10.3686 15.2442 8.50581C15.2442 4.78431 12.2273 1.76744 8.50581 1.76744ZM0 8.50581C0 3.80818 3.80818 0 8.50581 0C13.2034 0 17.0116 3.80818 17.0116 8.50581C17.0116 10.5377 16.2983 12.4042 15.1098 13.8667L18.7406 17.4908C19.086 17.8356 19.0865 18.3952 18.7417 18.7406C18.3969 19.086 17.8374 19.0865 17.492 18.7417L13.8594 15.1158C12.3979 16.3007 10.5343 17.0116 8.50581 17.0116C3.80818 17.0116 0 13.2034 0 8.50581Z" fill="#030911"/>
</svg>
