<svg width="20" height="20" viewBox="0 0 20 20" fill="none" xmlns="http://www.w3.org/2000/svg">
<path d="M8.85677 0.796434C9.54379 0.317823 10.4562 0.317823 11.1432 0.796434L12.8548 1.98883C13.0918 2.15393 13.3618 2.26573 13.6461 2.31657L15.6995 2.68371C16.5237 2.83107 17.1689 3.47626 17.3163 4.30048L17.6834 6.35393C17.7343 6.63824 17.8461 6.90817 18.0112 7.14516L19.2036 8.85677C19.6822 9.54379 19.6822 10.4562 19.2036 11.1432L18.0112 12.8548C17.8461 13.0918 17.7343 13.3618 17.6834 13.6461L17.3163 15.6995C17.1689 16.5237 16.5237 17.1689 15.6995 17.3163L13.6461 17.6834C13.3618 17.7343 13.0918 17.8461 12.8548 18.0112L11.1432 19.2036C10.4562 19.6822 9.54378 19.6822 8.85677 19.2036L7.14516 18.0112C6.90817 17.8461 6.63824 17.7343 6.35393 17.6834L4.30048 17.3163C3.47626 17.1689 2.83107 16.5237 2.68371 15.6995L2.31657 13.6461C2.26573 13.3618 2.15392 13.0918 1.98883 12.8548L0.796434 11.1432C0.317823 10.4562 0.317823 9.54378 0.796434 8.85677L1.98883 7.14516C2.15393 6.90817 2.26573 6.63824 2.31657 6.35393L2.68371 4.30048C2.83107 3.47626 3.47626 2.83107 4.30048 2.68371L6.35393 2.31657C6.63824 2.26573 6.90817 2.15392 7.14516 1.98883L8.85677 0.796434Z" fill="url(#paint0_linear_3281_7102)"/>
<path d="M14.1083 8.31529L9.50329 12.92C9.16228 13.2611 8.60911 13.2611 8.26778 12.92L5.89062 10.5427C5.54948 10.2016 5.54948 9.64838 5.89062 9.30724C6.23182 8.96604 6.78495 8.96604 7.126 9.30711L8.88572 11.0668L12.8728 7.07978C13.214 6.73858 13.7671 6.73884 14.1082 7.07978C14.4493 7.42092 14.4493 7.97396 14.1083 8.31529Z" fill="white"/>
<defs>
<linearGradient id="paint0_linear_3281_7102" x1="0.8" y1="0.933333" x2="10" y2="20" gradientUnits="userSpaceOnUse">
<stop stop-color="#F98B8B"/>
<stop offset="1" stop-color="#DA4E4E"/>
</linearGradient>
</defs>
</svg>
