<svg width="33" height="36" viewBox="0 0 33 36" fill="none" xmlns="http://www.w3.org/2000/svg">
<path d="M25.8525 7.4001C27.0103 7.00163 27.9011 6.54933 28.4569 6.09971C28.8383 5.79279 28.9582 5.59086 28.9582 5.5101C28.9582 5.42933 28.8383 5.2274 28.4569 4.91779C27.9011 4.47086 27.013 4.01856 25.8525 3.6201C23.3134 2.75048 19.799 2.24163 16.0313 2.24163C12.2636 2.24163 8.74921 2.75317 6.21015 3.6201C5.05231 4.01856 4.16146 4.47087 3.6057 4.92048C3.2243 5.2274 3.10443 5.42663 3.10443 5.5101C3.10443 5.59086 3.2243 5.79279 3.6057 6.1024C4.16146 6.54933 5.04959 7.00163 6.21015 7.4001C8.74921 8.26971 12.2636 8.77856 16.0313 8.77856C19.799 8.77856 23.3134 8.26702 25.8525 7.4001ZM2.27351 16.4651V21.2062C3.68743 22.6789 7.49057 24.472 12.1355 25.0078C18.9463 25.7912 25.3948 24.3213 29.7727 21.3893L29.7891 16.5432C25.1251 19.2543 18.5595 20.3932 11.9203 19.6259C7.80932 19.1547 4.30857 17.9297 2.27079 16.4651H2.27351ZM2.27351 13.5036C3.69015 14.9736 7.49057 16.7666 12.1355 17.2997C18.9599 18.0859 25.422 16.6105 29.8 13.6651L29.8191 8.29125C27.0321 9.90663 21.9022 10.9889 16.0313 10.9889C10.1849 10.9889 5.07138 9.91202 2.28168 8.3101C2.27803 10.0404 2.2753 11.7706 2.27351 13.5009V13.5036ZM2.27896 24.1732L2.28986 28.1524L2.24899 27.8778C3.08263 30.6024 8.40594 32.7913 16.3337 32.7913C20.6517 32.7913 24.0353 32.1451 26.6371 30.8743C27.3672 30.5162 27.9229 30.2147 28.4678 29.8216C28.8301 29.5605 29.0671 29.4016 29.4567 29.0624C29.8599 28.7097 30.4811 28.7959 30.8407 29.197C31.1976 29.5928 31.2439 30.2389 30.8407 30.5943C30.4048 30.9713 30.2005 31.1409 29.7755 31.4478C29.1407 31.9055 28.4188 32.382 27.5851 32.7913C24.7137 34.1939 21.7878 35.0313 16.3337 35.0313C7.24811 35.0313 1.241 32.1909 0.0913348 28.4351L0.0504701 28.3005V28.1605L0.0341242 22.477C0.0276176 16.886 0.0321582 11.295 0.0477458 5.70394C0.0408394 5.63955 0.0372024 5.57485 0.0368485 5.5101C0.0395728 2.48394 7.19907 0.03125 16.0313 0.03125C24.8635 0.03125 32.023 2.48394 32.023 5.5101C32.0239 5.62831 32.0138 5.74636 31.9931 5.86279C32.0193 5.94739 32.0321 6.03547 32.0312 6.12394L31.9685 25.2797C31.9658 25.8128 31.47 26.2436 30.8597 26.2409C30.2495 26.2409 29.7564 25.8074 29.7591 25.2716V24.2647C25.1005 26.9597 18.5458 28.0959 11.9203 27.3339C7.81477 26.8601 4.31402 25.6378 2.27624 24.1732H2.27896ZM27.1792 13.4632C26.9253 13.4653 26.681 13.3679 26.4997 13.1923C26.3184 13.0166 26.2149 12.7771 26.2121 12.5262C26.2121 12.0093 26.648 11.592 27.1819 11.592C27.7159 11.592 28.1518 12.0093 28.1518 12.5262C28.1518 13.0459 27.7159 13.4632 27.1819 13.4632H27.1792ZM27.1792 21.1713C26.9253 21.1734 26.681 21.076 26.4997 20.9004C26.3184 20.7247 26.2149 20.4852 26.2121 20.2343C26.2121 19.7174 26.648 19.2974 27.1819 19.2974C27.7159 19.2974 28.1518 19.7174 28.1518 20.2343C28.1518 20.7512 27.7159 21.1713 27.1819 21.1713H27.1792ZM27.1792 28.9789C27.0533 28.98 26.9284 28.9565 26.8116 28.9099C26.6948 28.8633 26.5885 28.7943 26.4987 28.7071C26.4089 28.6198 26.3374 28.516 26.2882 28.4014C26.239 28.2868 26.2131 28.1638 26.2121 28.0393C26.2121 27.5224 26.648 27.1024 27.1819 27.1024C27.7159 27.1024 28.1518 27.5224 28.1518 28.0393C28.1518 28.5562 27.7159 28.9763 27.1819 28.9763L27.1792 28.9789Z" fill="white" stroke="white" stroke-width="0.0625"/>
</svg>
