<svg width="35" height="35" viewBox="0 0 35 35" fill="none" xmlns="http://www.w3.org/2000/svg">
<path fill-rule="evenodd" clip-rule="evenodd" d="M28.6364 19.0909V12.7273H22.2727C20.5155 12.7273 19.0909 11.3027 19.0909 9.54545V3.18182H6.36364V19.0909H3.18182V3.18182C3.18182 1.42455 4.60637 0 6.36364 0H22.9317L31.8182 8.88648V19.0909H28.6364ZM22.2727 3.84079V9.54545H27.9774L22.2727 3.84079ZM0 20.6818H35V23.8636H0V20.6818ZM6.36364 35V25.4545H9.54545V35H6.36364ZM19.0909 35V25.4545H22.2727V35H19.0909ZM12.7273 31.8182V25.4545H15.9091V31.8182H12.7273ZM25.4545 31.8182V25.4545H28.6364V31.8182H25.4545Z" fill="white"/>
</svg>
