<svg width="35" height="35" viewBox="0 0 35 35" fill="none" xmlns="http://www.w3.org/2000/svg">
<g clip-path="url(#clip0_3281_7195)">
<path d="M17.2485 16.8596C19.5647 16.8596 21.5703 16.0289 23.2091 14.3899C24.8478 12.7511 25.6786 10.746 25.6786 8.42953C25.6786 6.11387 24.8478 4.10849 23.2088 2.46921C21.5698 0.830723 19.5644 0 17.2485 0C14.932 0 12.9269 0.830723 11.2881 2.46947C9.64935 4.10822 8.81836 6.1136 8.81836 8.42953C8.81836 10.746 9.64935 12.7514 11.2884 14.3901C12.9274 16.0286 14.9328 16.8596 17.2485 16.8596Z" fill="white"/>
<path d="M32.001 26.9135C31.9537 26.2315 31.8581 25.4875 31.7174 24.7019C31.5754 23.9105 31.3924 23.1622 31.1735 22.4784C30.9473 21.7716 30.6397 21.0736 30.2594 20.4046C29.8648 19.7104 29.4012 19.1058 28.881 18.6084C28.3371 18.0879 27.6711 17.6695 26.901 17.3643C26.1336 17.0607 25.2831 16.9069 24.3733 16.9069C24.016 16.9069 23.6705 17.0535 23.0032 17.4879C22.5925 17.7557 22.1121 18.0655 21.5759 18.4081C21.1174 18.7002 20.4963 18.9739 19.7292 19.2217C18.9807 19.4639 18.2207 19.5867 17.4706 19.5867C16.7205 19.5867 15.9608 19.4639 15.2116 19.2217C14.4452 18.9742 13.8241 18.7005 13.3661 18.4083C12.835 18.069 12.3544 17.7592 11.9375 17.4876C11.271 17.0532 10.9252 16.9066 10.5679 16.9066C9.6579 16.9066 8.80768 17.0607 8.0405 17.3645C7.27093 17.6692 6.60469 18.0876 6.06022 18.6086C5.54031 19.1064 5.07648 19.7106 4.68235 20.4046C4.30237 21.0736 3.99475 21.7713 3.76831 22.4787C3.54961 23.1625 3.3667 23.9105 3.22464 24.7019C3.08392 25.4865 2.98832 26.2307 2.94106 26.9143C2.89459 27.584 2.87109 28.279 2.87109 28.981C2.87109 30.8081 3.45188 32.2871 4.59717 33.3779C5.7283 34.4543 7.225 35.0004 9.04507 35.0004H25.8978C27.7179 35.0004 29.214 34.4546 30.3454 33.3779C31.491 32.2879 32.0718 30.8086 32.0718 28.9808C32.0715 28.2756 32.0477 27.58 32.001 26.9135Z" fill="white"/>
</g>
<defs>
<clipPath id="clip0_3281_7195">
<rect width="35" height="35" rx="17.5" fill="white"/>
</clipPath>
</defs>
</svg>
