<svg width="35" height="35" viewBox="0 0 35 35" fill="none" xmlns="http://www.w3.org/2000/svg">
<g clip-path="url(#clip0_3342_6656)">
<path fill-rule="evenodd" clip-rule="evenodd" d="M30.8841 19.6494C30.8841 25.5418 22.3132 30.2235 18.6547 32.2226C18.1832 32.48 17.79 32.6941 17.5017 32.865C17.2135 32.6941 16.8202 32.48 16.3488 32.2226C12.6902 30.2235 4.11939 25.5418 4.11939 19.6494V7.97588L17.5017 2.24L30.8841 7.97588V19.6494L30.8841 19.6494ZM17.5017 0L2.06055 6.61706V19.6494C2.06055 26.7626 11.3829 31.8562 15.3626 34.0303C15.8629 34.3041 16.2685 34.5244 16.5464 34.6912V34.6932C16.8408 34.8703 17.1702 34.9588 17.5017 34.9588C17.8387 34.9589 18.1692 34.8663 18.457 34.6912C18.735 34.5244 19.1405 34.3041 19.6408 34.0303C23.6205 31.8562 32.9429 26.7626 32.9429 19.6494V6.61706L17.5017 0H17.5017ZM11.0236 15.8332L9.56807 17.2888L15.4419 23.1646L26.4648 12.1417L25.0092 10.6861L15.4419 20.2514L11.0236 15.8332Z" fill="white" stroke="white" stroke-width="0.0333333"/>
</g>
<defs>
<clipPath id="clip0_3342_6656">
<rect width="35" height="35" fill="white"/>
</clipPath>
</defs>
</svg>
