<svg width="35" height="35" viewBox="0 0 35 35" fill="none" xmlns="http://www.w3.org/2000/svg">
<g clip-path="url(#clip0_3281_7205)">
<path d="M17.4989 10.832C13.8216 10.832 10.8301 13.8236 10.8301 17.5005C10.8301 21.1778 13.8216 24.1693 17.4989 24.1693C21.1758 24.1693 24.1674 21.1778 24.1674 17.5005C24.1674 13.8236 21.1758 10.832 17.4989 10.832ZM21.4581 16.2447L16.6807 21.0221C16.4801 21.2227 16.2171 21.3231 15.9544 21.3231C15.6916 21.3231 15.4288 21.2229 15.2283 21.0221L13.4026 19.1964C13.0016 18.7956 13.0016 18.1454 13.4026 17.7443C13.8034 17.3433 14.4537 17.3433 14.8547 17.7443L15.9544 18.844L20.006 14.7926C20.4068 14.3915 21.057 14.3915 21.4581 14.7926C21.8592 15.1934 21.8592 15.8436 21.4581 16.2447Z" fill="white"/>
<path d="M32.3673 9.49633L32.3662 9.46909C32.351 9.1329 32.3408 8.77722 32.3347 8.38148C32.3061 6.45167 30.772 4.85538 28.842 4.7475C24.8178 4.52293 21.7048 3.21075 19.045 0.618176L19.0223 0.596546C18.1547 -0.19893 16.846 -0.19893 15.9782 0.596546L15.9555 0.618176C13.2956 3.21075 10.1826 4.52293 6.15846 4.74777C4.22865 4.85538 2.69431 6.45167 2.66574 8.38175C2.65986 8.77482 2.64945 9.1305 2.63423 9.46909L2.63262 9.53237C2.55439 13.6358 2.45719 18.7427 4.16563 23.378C5.10504 25.9271 6.52776 28.1429 8.39402 29.9643C10.5196 32.0386 13.3036 33.6853 16.6687 34.8587C16.7782 34.8968 16.8919 34.9278 17.0078 34.951C17.1712 34.9836 17.3357 34.9999 17.5002 34.9999C17.6647 34.9999 17.8295 34.9836 17.9926 34.951C18.1085 34.9278 18.2231 34.8966 18.3331 34.8581C21.6942 33.6827 24.4753 32.0351 26.5989 29.9611C28.4644 28.1392 29.8871 25.9228 30.8273 23.3732C32.5422 18.724 32.4452 13.6075 32.3673 9.49633ZM17.4997 26.223C12.69 26.223 8.77721 22.3102 8.77721 17.5005C8.77721 12.6908 12.69 8.77802 17.4997 8.77802C22.3091 8.77802 26.2221 12.6908 26.2221 17.5005C26.2221 22.3102 22.3091 26.223 17.4997 26.223Z" fill="white"/>
</g>
<defs>
<clipPath id="clip0_3281_7205">
<rect width="35" height="35" rx="17.5" fill="white"/>
</clipPath>
</defs>
</svg>
